<svg id="图层_1" data-name="图层 1" xmlns="http://www.w3.org/2000/svg" viewBox="0 0 1000 1000"><defs><style>.cls-1{fill:#2fade2;}.cls-2{fill:#693394;}.cls-3{fill:#8cc640;}.cls-4{fill:#f9b043;}.cls-5{fill:#e9462a;}</style></defs><path class="cls-1" d="M198.09,199.88c0-54.79.59-109.63-1-164.42C196.13,10.21,202.38,0,230.45,0Q498.53,1.79,766.29,0c27.15,0,35.62,8.74,34.64,35-1.68,43.82-2.39,87.8,0,131.52,2,32.58-11.4,39-41,38.77-186.46-1.36-373-1-559.29-1.2C199.93,202.7,199,201.29,198.09,199.88Z"/><path class="cls-2" d="M799.19,801.1c.28,56.36,0,112.78,1.2,169.09.54,22.15-6.74,29.92-29.54,29.81q-272.6-1.14-545.18,0c-24.81,0-28.07-10.37-27.64-30.84,1.25-56.37,1-112.73,1.36-169.1l1.52-3.09H795A4.46,4.46,0,0,0,799.19,801.1Z"/><path class="cls-3" d="M200.91,797.08l-1.52,3.09c-53.43,0-106.86-1.19-160.19.6-27.69.92-38.55-6-38.55-36.22Q2.56,500.7.65,237c0-28.34,7.76-38.82,37.14-37.68,53.32,2.06,106.76.54,160.19.54q1.47,2.12,2.77,4.24Q200.92,500.6,200.91,797.08Z"/><path class="cls-4" d="M799.19,801.1a4.45,4.45,0,0,1-4.23-4.19l-1-194.77q0-101.26-.54-202.49c57.77-.7,115.6-.6,173.33-2.44,24.54-.82,32.58,8.25,32.58,32.58-.87,112.51-1.09,225,0,337.48.27,27.74-10.86,34.37-36.17,33.77C908.61,799.68,853.87,800.93,799.19,801.1Z"/><path class="cls-5" d="M793.44,399.65q.31,101.28.54,202.49c-54.3,0-109.2-1.41-163.72.43-27.15.93-35.18-8.09-34.1-34.48q2.85-67.68,0-135.75c-1-25.85,6-36.16,33.62-35C684.29,400,739.14,399.16,793.44,399.65Z"/></svg>